<svg width="387" height="125" viewBox="0 0 387 125" fill="none" xmlns="http://www.w3.org/2000/svg">
<path d="M98.0172 79.7529C97.6343 78.8638 97.2754 77.9291 96.8925 77.1312L95.1218 73.3241L95.05 73.2557C89.7857 62.313 84.1625 51.188 78.2042 40.2454L77.9649 39.7894C77.3667 38.7179 76.7685 37.5325 76.1463 36.4382C75.3806 35.1388 74.6388 33.7481 73.4184 32.4259C72.2289 31.0424 70.7318 29.9278 69.0352 29.1624C67.3386 28.397 65.4848 28 63.6077 28C61.7305 28 59.8767 28.397 58.1801 29.1624C56.4835 29.9278 54.9864 31.0424 53.7969 32.4259C52.6722 33.7481 51.8347 35.1388 51.069 36.4382C50.4708 37.6237 49.8726 38.7863 49.2504 39.8578L49.0111 40.3137C43.1486 51.2564 37.4296 62.3814 32.1653 73.3241L32.0217 73.4609C31.4953 74.6463 30.8731 75.8774 30.2749 77.1996C29.8921 77.9975 29.5092 78.8638 29.1264 79.8213C28.0927 82.3285 27.7626 85.049 28.1687 87.7148C28.5747 90.3805 29.7028 92.8995 31.4418 95.0234C33.1808 97.1473 35.4707 98.8028 38.0858 99.8268C40.7009 100.851 43.5509 101.208 46.355 100.863C49.0434 100.526 51.632 99.6728 53.9644 98.3554C57.0751 96.6912 60.0662 94.2747 63.4162 90.7867C66.7663 94.2747 69.8291 96.6912 72.8681 98.3782C75.7905 100.012 79.1 100.914 82.4874 101C86.4102 101.015 90.2064 99.6783 93.1752 97.2354C96.1439 94.7925 98.0847 91.4089 98.6393 87.7091C99.2803 85.0504 99.0634 82.2693 98.0172 79.7301V79.7529ZM63.6555 83.5372C59.5398 78.5218 56.8598 73.9168 55.9505 69.9729C55.5737 68.5114 55.4925 66.995 55.7112 65.5046C55.8787 64.342 56.3333 63.3161 56.9555 62.4498C58.3912 60.4665 60.9037 59.2354 63.6555 59.2354C64.9624 59.1974 66.2587 59.4691 67.4281 60.0261C68.5975 60.5832 69.6034 61.4082 70.3556 62.427C70.9777 63.3389 71.4324 64.342 71.5759 65.5046C71.8152 66.8269 71.7195 68.3543 71.3366 69.9729C70.4274 73.8484 67.7473 78.499 63.6555 83.5372ZM94.1407 86.9112C93.8689 88.7896 93.0851 90.5673 91.8676 92.0672C90.6501 93.5672 89.0412 94.737 87.2014 95.4602C85.3828 96.1897 83.3728 96.3948 81.4106 96.1897C79.4963 95.9617 77.582 95.369 75.6199 94.2747C72.362 92.3563 69.4325 89.9728 66.9338 87.2076C71.9588 81.2803 74.9977 75.8774 76.1463 71.0672C76.6967 68.7874 76.7685 66.7357 76.5292 64.8435C76.2304 63.05 75.5284 61.3392 74.4713 59.8281C73.2643 58.1896 71.6533 56.8587 69.7799 55.9523C67.9065 55.046 65.828 54.5921 63.7273 54.6304C59.3005 54.6304 55.3522 56.5909 52.9594 59.8053C51.8822 61.3126 51.186 63.037 50.9254 64.8435C50.6144 66.7585 50.6861 68.8786 51.3083 71.0672C52.4569 75.8774 55.5676 81.3487 60.5209 87.2532C58.0645 90.0713 55.1282 92.4757 51.8347 94.3659C49.8486 95.4602 47.9583 96.0301 46.044 96.2581C43.067 96.6214 40.0597 95.8505 37.676 94.1131C35.2922 92.3757 33.7246 89.8121 33.3139 86.9796C33.0746 85.1558 33.2421 83.332 34.0078 81.2803C34.2471 80.5508 34.606 79.8213 34.9889 78.955C35.5153 77.7695 36.1375 76.5385 36.7357 75.3074L36.8314 75.1479C42 64.2736 47.6472 53.1714 53.5097 42.2971L53.749 41.8412C54.3472 40.7469 54.9455 39.5842 55.5676 38.49C56.1898 37.3273 56.8598 36.2102 57.7212 35.2984C58.4668 34.4504 59.3986 33.7684 60.4507 33.3005C61.5029 32.8325 62.6499 32.59 63.8111 32.59C64.9722 32.59 66.1192 32.8325 67.1714 33.3005C68.2236 33.7684 69.1553 34.4504 69.9009 35.2984C70.7384 36.2102 71.4324 37.3273 72.0545 38.49C72.6527 39.5842 73.2509 40.7697 73.8731 41.8412L74.1124 42.2971C79.951 53.1714 85.5982 64.2736 90.8625 75.1479L90.9343 75.2162C91.5564 76.4017 92.0829 77.7239 92.6811 78.8638C93.0639 79.7529 93.4468 80.4596 93.6861 81.2119C94.1407 83.2637 94.38 85.0874 94.1407 86.9112Z" fill="#FF385C"/>
<path d="M120.08 85.6C118.48 85.6 116.94 85.4 115.46 85C113.98 84.56 112.62 83.96 111.38 83.2C110.14 82.4 109.06 81.44 108.14 80.32L112.34 76.12C113.34 77.28 114.48 78.16 115.76 78.76C117.08 79.32 118.56 79.6 120.2 79.6C121.68 79.6 122.8 79.38 123.56 78.94C124.32 78.5 124.7 77.86 124.7 77.02C124.7 76.14 124.34 75.46 123.62 74.98C122.9 74.5 121.96 74.1 120.8 73.78C119.68 73.42 118.48 73.06 117.2 72.7C115.96 72.34 114.76 71.86 113.6 71.26C112.48 70.62 111.56 69.76 110.84 68.68C110.12 67.6 109.76 66.2 109.76 64.48C109.76 62.64 110.18 61.06 111.02 59.74C111.9 58.42 113.12 57.4 114.68 56.68C116.28 55.96 118.18 55.6 120.38 55.6C122.7 55.6 124.74 56.02 126.5 56.86C128.3 57.66 129.8 58.88 131 60.52L126.8 64.72C125.96 63.68 125 62.9 123.92 62.38C122.84 61.86 121.6 61.6 120.2 61.6C118.88 61.6 117.86 61.8 117.14 62.2C116.42 62.6 116.06 63.18 116.06 63.94C116.06 64.74 116.42 65.36 117.14 65.8C117.86 66.24 118.78 66.62 119.9 66.94C121.06 67.26 122.26 67.62 123.5 68.02C124.78 68.38 125.98 68.9 127.1 69.58C128.26 70.22 129.2 71.1 129.92 72.22C130.64 73.3 131 74.72 131 76.48C131 79.28 130.02 81.5 128.06 83.14C126.1 84.78 123.44 85.6 120.08 85.6ZM156.181 85V68.38C156.181 66.46 155.561 64.88 154.321 63.64C153.121 62.4 151.561 61.78 149.641 61.78C148.361 61.78 147.221 62.06 146.221 62.62C145.221 63.18 144.441 63.96 143.881 64.96C143.321 65.96 143.041 67.1 143.041 68.38L140.461 66.94C140.461 64.74 140.941 62.8 141.901 61.12C142.861 59.4 144.181 58.06 145.861 57.1C147.581 56.1 149.501 55.6 151.621 55.6C153.781 55.6 155.701 56.08 157.381 57.04C159.061 58 160.381 59.34 161.341 61.06C162.301 62.74 162.781 64.7 162.781 66.94V85H156.181ZM136.441 85V41.8H143.041V85H136.441ZM181.548 85.6C178.948 85.6 176.588 84.94 174.468 83.62C172.388 82.3 170.728 80.52 169.488 78.28C168.288 76 167.688 73.46 167.688 70.66C167.688 67.82 168.288 65.28 169.488 63.04C170.728 60.76 172.388 58.96 174.468 57.64C176.588 56.28 178.948 55.6 181.548 55.6C183.748 55.6 185.688 56.08 187.368 57.04C189.088 57.96 190.448 59.24 191.448 60.88C192.448 62.52 192.948 64.38 192.948 66.46V74.74C192.948 76.82 192.448 78.68 191.448 80.32C190.488 81.96 189.148 83.26 187.428 84.22C185.708 85.14 183.748 85.6 181.548 85.6ZM182.628 79.36C185.068 79.36 187.028 78.54 188.508 76.9C190.028 75.26 190.788 73.16 190.788 70.6C190.788 68.88 190.448 67.36 189.768 66.04C189.088 64.72 188.128 63.7 186.888 62.98C185.688 62.22 184.268 61.84 182.628 61.84C181.028 61.84 179.608 62.22 178.368 62.98C177.168 63.7 176.208 64.72 175.488 66.04C174.808 67.36 174.468 68.88 174.468 70.6C174.468 72.32 174.808 73.84 175.488 75.16C176.208 76.48 177.168 77.52 178.368 78.28C179.608 79 181.028 79.36 182.628 79.36ZM190.368 85V77.26L191.508 70.24L190.368 63.28V56.2H196.968V85H190.368ZM204.293 85V56.2H210.893V85H204.293ZM210.893 68.98L208.613 67.84C208.613 64.2 209.413 61.26 211.013 59.02C212.653 56.74 215.113 55.6 218.393 55.6C219.833 55.6 221.133 55.86 222.293 56.38C223.453 56.9 224.533 57.74 225.533 58.9L221.213 63.34C220.693 62.78 220.113 62.38 219.473 62.14C218.833 61.9 218.093 61.78 217.253 61.78C215.413 61.78 213.893 62.36 212.693 63.52C211.493 64.68 210.893 66.5 210.893 68.98ZM241.228 85.6C238.348 85.6 235.748 84.96 233.428 83.68C231.148 82.36 229.328 80.56 227.968 78.28C226.648 76 225.988 73.44 225.988 70.6C225.988 67.76 226.648 65.22 227.968 62.98C229.288 60.7 231.068 58.9 233.308 57.58C235.588 56.26 238.108 55.6 240.868 55.6C243.548 55.6 245.908 56.22 247.948 57.46C250.028 58.7 251.648 60.4 252.808 62.56C254.008 64.72 254.608 67.18 254.608 69.94C254.608 70.42 254.568 70.92 254.487 71.44C254.448 71.92 254.368 72.46 254.248 73.06H230.608V67.66H250.828L248.368 69.82C248.288 68.06 247.948 66.58 247.348 65.38C246.748 64.18 245.888 63.26 244.768 62.62C243.688 61.98 242.348 61.66 240.748 61.66C239.068 61.66 237.608 62.02 236.368 62.74C235.128 63.46 234.168 64.48 233.488 65.8C232.808 67.08 232.468 68.62 232.468 70.42C232.468 72.22 232.828 73.8 233.548 75.16C234.268 76.52 235.288 77.58 236.608 78.34C237.928 79.06 239.448 79.42 241.168 79.42C242.648 79.42 244.008 79.16 245.248 78.64C246.528 78.12 247.608 77.36 248.488 76.36L252.688 80.62C251.288 82.26 249.588 83.5 247.588 84.34C245.588 85.18 243.468 85.6 241.228 85.6ZM275.318 85.6C273.118 85.6 271.158 85.14 269.438 84.22C267.718 83.26 266.358 81.96 265.358 80.32C264.398 78.68 263.918 76.82 263.918 74.74V66.46C263.918 64.38 264.418 62.52 265.418 60.88C266.418 59.24 267.778 57.96 269.498 57.04C271.218 56.08 273.158 55.6 275.318 55.6C277.918 55.6 280.258 56.28 282.338 57.64C284.458 58.96 286.118 60.76 287.318 63.04C288.558 65.28 289.178 67.82 289.178 70.66C289.178 73.46 288.558 76 287.318 78.28C286.118 80.52 284.458 82.3 282.338 83.62C280.258 84.94 277.918 85.6 275.318 85.6ZM259.898 85V41.8H266.498V63.28L265.358 70.24L266.498 77.26V85H259.898ZM274.238 79.36C275.838 79.36 277.238 79 278.438 78.28C279.678 77.52 280.638 76.48 281.318 75.16C282.038 73.84 282.398 72.32 282.398 70.6C282.398 68.88 282.038 67.36 281.318 66.04C280.638 64.72 279.678 63.7 278.438 62.98C277.238 62.22 275.838 61.84 274.238 61.84C272.638 61.84 271.218 62.22 269.978 62.98C268.738 63.7 267.778 64.72 267.098 66.04C266.418 67.36 266.078 68.88 266.078 70.6C266.078 72.32 266.418 73.84 267.098 75.16C267.778 76.48 268.738 77.52 269.978 78.28C271.218 79 272.638 79.36 274.238 79.36ZM314.443 85V68.38C314.443 66.46 313.823 64.88 312.583 63.64C311.383 62.4 309.823 61.78 307.903 61.78C306.623 61.78 305.483 62.06 304.483 62.62C303.483 63.18 302.703 63.96 302.143 64.96C301.583 65.96 301.303 67.1 301.303 68.38L298.723 66.94C298.723 64.74 299.203 62.8 300.163 61.12C301.123 59.4 302.443 58.06 304.123 57.1C305.843 56.1 307.763 55.6 309.883 55.6C312.043 55.6 313.963 56.16 315.643 57.28C317.323 58.36 318.643 59.78 319.603 61.54C320.563 63.26 321.043 65.06 321.043 66.94V85H314.443ZM294.703 85V56.2H301.303V85H294.703ZM343.17 85.6C340.97 85.6 339.01 85.14 337.29 84.22C335.57 83.26 334.21 81.96 333.21 80.32C332.25 78.68 331.77 76.82 331.77 74.74V66.46C331.77 64.38 332.27 62.52 333.27 60.88C334.27 59.24 335.63 57.96 337.35 57.04C339.07 56.08 341.01 55.6 343.17 55.6C345.77 55.6 348.11 56.28 350.19 57.64C352.31 58.96 353.97 60.76 355.17 63.04C356.41 65.28 357.03 67.82 357.03 70.66C357.03 73.46 356.41 76 355.17 78.28C353.97 80.52 352.31 82.3 350.19 83.62C348.11 84.94 345.77 85.6 343.17 85.6ZM327.75 85V41.8H334.35V63.28L333.21 70.24L334.35 77.26V85H327.75ZM342.09 79.36C343.69 79.36 345.09 79 346.29 78.28C347.53 77.52 348.49 76.48 349.17 75.16C349.89 73.84 350.25 72.32 350.25 70.6C350.25 68.88 349.89 67.36 349.17 66.04C348.49 64.72 347.53 63.7 346.29 62.98C345.09 62.22 343.69 61.84 342.09 61.84C340.49 61.84 339.07 62.22 337.83 62.98C336.59 63.7 335.63 64.72 334.95 66.04C334.27 67.36 333.93 68.88 333.93 70.6C333.93 72.32 334.27 73.84 334.95 75.16C335.63 76.48 336.59 77.52 337.83 78.28C339.07 79 340.49 79.36 342.09 79.36Z" fill="#FF385C"/>
</svg>
