<svg width="573" height="615" viewBox="0 0 573 615" fill="none" xmlns="http://www.w3.org/2000/svg">
<path d="M286.607 4C317.164 4 345.832 17.7304 365.745 42.5684C374.399 52.3324 380.215 62.5569 385.503 72.0996L387.749 76.1553L387.797 76.2412L387.841 76.3291C391.905 84.5673 396.069 92.7587 400.329 100.902L402.161 104.39L402.184 104.432L402.205 104.475L403.975 108.036C450.624 197.722 494.869 288.602 536.144 378.301L536.772 378.93L537.074 379.622C541.278 389.237 545.962 399.188 550.827 410.122L551.396 411.387C553.86 416.929 556.352 423.248 558.759 429.129L559.863 431.808L559.906 431.912L559.944 432.019C567.895 454.658 570.447 476.351 565.525 498.173C558.689 543.788 528.473 583.256 485.244 600.579C469.7 607.408 452.395 610.469 435.19 610.469C430.142 610.469 423.947 609.855 419.099 609.233V609.232C398.795 606.773 377.932 600.014 357.707 588.373V588.374C334.21 574.858 310.832 555.763 285.421 528.501C260.091 555.724 237.244 574.838 213.139 588.372C192.916 600.015 172.046 606.773 151.735 609.232L151.736 609.233C146.89 609.848 140.704 610.469 135.654 610.469C118.413 610.469 101.718 607.396 85.623 600.592L84.626 600.182C42.4945 582.665 12.0378 543.996 5.2959 498.018L5.29395 498.004L5.29102 497.989C2.18918 475.722 4.68528 454.109 12.667 431.407L12.6865 431.354L12.7061 431.301C15.7205 423.45 18.7457 416.188 21.7715 409.515C26.6385 398.582 31.3271 388.648 35.5352 379.014L35.5811 378.909L35.6328 378.807L36.1943 377.697C77.5512 287.789 122.498 196.702 168.638 106.829L170.42 103.264L170.457 103.191C175.344 93.891 180.12 84.5346 184.777 75.1221L184.819 75.0381L184.864 74.9561C190.864 64.1358 197.615 52.4718 206.863 41.3809L206.889 41.3506L206.915 41.3203C227.377 17.7571 255.405 4 286.607 4ZM287.201 51.5469C269.828 51.5469 254.148 58.8063 242.294 72.3311C235.994 79.7849 230.783 88.4576 226.081 97.8662L226.058 97.9141L226.032 97.9609C223.651 102.425 221.268 107.044 218.868 111.691C216.48 116.317 214.075 120.972 211.665 125.479L209.907 129.012L209.891 129.044L209.875 129.075C163.777 217.669 119.476 308.67 78.1699 397.889L78.1396 397.953L78.1084 398.016L77.5244 399.167C72.7303 409.327 67.9829 419.451 63.8242 428.962C60.6872 436.484 57.9091 441.953 56.2061 447.668L56.1758 447.771L56.1396 447.873C50.3612 464.03 49.2281 478.373 50.9473 492.759C54.959 522.443 74.9634 548.185 102.973 559.629C116.165 564.786 131.088 567.078 146.576 565.353C160.983 563.63 175.419 559.019 190.535 550.296L190.563 550.279L190.592 550.264C210.995 538.926 232.123 521.45 255.593 495.487C217.711 447.763 193.489 403.226 184.47 363.626C179.55 345.128 178.934 327.223 181.409 311.121L181.411 311.11L181.413 311.099C183.893 295.568 189.506 281.211 198.257 268.702L198.265 268.69C217.617 241.226 250.016 224.464 285.998 224.464C321.927 224.464 354.356 240.576 373.749 268.702H373.75C382.227 280.82 387.761 294.673 390.348 309.647L390.589 311.1L390.603 311.184L390.612 311.269C392.471 327.299 391.843 344.523 387.551 363.542L387.55 363.549C378.542 403.154 354.902 447.136 316.443 494.877C340.073 520.466 360.356 537.766 380.414 549.112L381.4 549.666L381.428 549.681L381.454 549.696C396.57 558.41 411.042 563.027 425.462 564.763C440.418 566.486 455.298 564.75 468.971 559.058L468.983 559.052L468.996 559.047C497.034 547.598 517.055 521.834 521.05 492.118L521.055 492.08L521.061 492.042C523.35 477.193 521.659 462.829 517.013 447.706L517.009 447.691L517.004 447.677C515.299 441.973 512.531 436.507 509.404 429.025C506.984 424.166 504.721 419.033 502.504 414.005C500.251 408.896 498.042 403.894 495.691 399.196L495.269 398.351V397.689C453.372 307.319 409.783 217.777 364.513 129.047L364.506 129.033L364.499 129.021L362.71 125.446C360.316 120.949 357.922 116.306 355.54 111.69C353.142 107.044 350.756 102.427 348.371 97.9639L348.346 97.916L348.322 97.8682C343.623 88.48 338.415 79.8112 332.113 72.3438L331.556 71.7139C319.774 58.586 304.304 51.5469 287.201 51.5469ZM286.009 269.011C265.115 269.011 247.204 278.591 236.592 293.622C232.099 300.372 228.773 308.167 227.676 317.022L227.666 317.107L227.651 317.19C225.955 327.34 226.494 338.79 229.403 352.211L229.74 353.691C236.797 383.838 256.101 419.624 285.98 457.994C316.368 418.425 335.834 382.087 342.623 352.192C345.527 339.408 346.07 327.362 344.38 317.187L344.367 317.109L344.357 317.031C343.238 308.154 339.912 300.338 335.405 293.585L335.387 293.557L335.368 293.527C325.448 278.096 307.068 269.011 286.009 269.011Z" fill="#FE385C" stroke="#FE385C" stroke-width="8"/>
</svg>
