<svg xmlns="http://www.w3.org/2000/svg" viewBox="0 0 32 32" aria-hidden="true" role="presentation" focusable="false" style="display: block; height: 24px; width: 24px; fill: currentcolor;"><path d="M13 30h-2v-2H8v2H6v-2H3v2H1V6.5a3.5 3.5 0 0 1 6-2.45 3.5 3.5 0 0 1 6 2.26V10h.93a9 9 0 0 1 8 4.89l.14.27L28.13 28H31v2h-8.5a1 1 0 0 1-.85-.47l-.06-.1-5.42-11.7a3 3 0 0 0-2.53-1.72l-.2-.01H13v14zm.45-16a5 5 0 0 1 4.43 2.69l.1.2L23.14 28h2.78l-5.66-11.99a7 7 0 0 0-6.06-4l-.27-.01H13v2h.45zM6 24H3v2h3v-2zm0-4H3v2h3v-2zm0-4H3v2h3v-2zm0-4H3v2h3v-2zM4.5 5A1.5 1.5 0 0 0 3 6.36V10h3V6.5A1.5 1.5 0 0 0 4.5 5zm5 0A1.5 1.5 0 0 0 8 6.36V10h3V6.5A1.5 1.5 0 0 0 9.64 5H9.5zM8 26h3v-2H8v2zm0-4h3v-2H8v2zm0-4h3v-2H8v2zm0-4h3v-2H8v2z"></path></svg>