<svg viewBox="0 0 32 32" xmlns="http://www.w3.org/2000/svg" aria-hidden="true" role="presentation" focusable="false" style="display: block; fill: none; height: 24px; width: 24px; stroke: currentcolor; stroke-width: 2; overflow: visible;"><path d="m15.9999986 2c1.2250014 0 2.3115014.5023 3.1358014 1.46563.3809.4448.676.95684.9635 1.49057.2447.45434.4874.92444.7218 1.37869 2.4037 4.65371 4.6189 9.18091 6.6826 13.64651.2498.5397.4884 1.0558.7131 1.5638.1663.3757.2999.6917.4143 1.0127.3494.9817.4435 1.8656.3123 2.7807-.2734 1.9029-1.5515 3.5342-3.3364 4.2563-.8672.3511-1.8152.4772-2.7793.3657-.8832-.1023-1.7549-.3932-2.6607-.9016-1.1564-.6492-2.3337-1.6379-3.6518-3.1008-.1996-.2215-.3887-.4387-.5672-.6523l.0519986.0613-.1286986.1524c-.0622.0722-.1254.1448-.1899.2179l-.1967.2208c-1.3181 1.4628-2.4954 2.4515-3.6518 3.1007-.9057.5084-1.7772.7993-2.66067.9016-.96357.1115-1.91204-.0146-2.77919-.3656-1.78516-.7223-3.06333-2.3536-3.33634-4.2564-.13145-.9154-.03717-1.7994.31239-2.7805.1145-.3217.24791-.6377.41396-1.0129.221-.4993.45555-1.0068.68237-1.4974 2.09459-4.5321 4.30984-9.0592 6.61488-13.52192.3287-.63723.5732-1.11105.8201-1.56925.2877-.53369.5828-1.0457.963-1.49027.8246-.96384 1.9113-1.46636 3.1365986-1.46636zm.0000014 11.0179c-1.3817 0-2.6631.5703-3.4006 1.6431-.3216.468-.4955.8988-.5867 1.4908-.1032.6681-.0601 1.3979.116 2.1697.4257 1.864 1.5488 4.077 3.3894 6.3448.178.2194.357.4321.5361.638l-.0532-.0623.2136-.251.2672-.3248c1.8381-2.2648 3.0076-4.3445 3.4333-6.2066.1765-.7717.2197-1.5019.1166-2.1707-.0928-.6027-.3033-1.151-.6309-1.6275-.7376-1.073-2.0183-1.6435-3.4008-1.6435z" fill="none"></path></svg>